<svg width="73" height="21" viewBox="0 0 73 21" fill="none" xmlns="http://www.w3.org/2000/svg">
<path d="M2.76989 20.0909C2.45265 20.0909 2.16383 20.0649 1.90341 20.0128C1.64299 19.9654 1.44886 19.9134 1.32102 19.8565L1.83239 18.1165C2.22064 18.2206 2.56629 18.2656 2.86932 18.2514C3.17235 18.2372 3.43987 18.1236 3.67188 17.9105C3.90862 17.6974 4.11695 17.3494 4.29688 16.8665L4.55966 16.142L0.568182 5.09091H2.84091L5.60369 13.5568H5.71733L8.48011 5.09091H10.7599L6.2642 17.456C6.05587 18.0241 5.79072 18.5047 5.46875 18.8977C5.14678 19.2955 4.76326 19.5938 4.31818 19.7926C3.87311 19.9915 3.35701 20.0909 2.76989 20.0909ZM15.0179 16.2415C14.3266 16.2415 13.7016 16.1136 13.1429 15.858C12.5842 15.5975 12.1415 15.2211 11.8148 14.7287C11.4928 14.2363 11.3318 13.6326 11.3318 12.9176C11.3318 12.3021 11.4502 11.7955 11.6869 11.3977C11.9237 11 12.2433 10.6851 12.6457 10.4531C13.0482 10.2211 13.498 10.0459 13.9952 9.92756C14.4923 9.80919 14.999 9.71922 15.5151 9.65767C16.1685 9.58191 16.6988 9.52036 17.106 9.47301C17.5132 9.42093 17.8091 9.33807 17.9937 9.22443C18.1784 9.1108 18.2707 8.92614 18.2707 8.67045V8.62074C18.2707 8.00047 18.0955 7.51989 17.7452 7.17898C17.3995 6.83807 16.8834 6.66761 16.1969 6.66761C15.4819 6.66761 14.9185 6.82623 14.5065 7.14347C14.0993 7.45597 13.8176 7.80398 13.6614 8.1875L11.6656 7.73295C11.9024 7.07008 12.248 6.53504 12.7026 6.12784C13.1618 5.71591 13.6898 5.41761 14.2864 5.23295C14.883 5.04356 15.5103 4.94886 16.1685 4.94886C16.6041 4.94886 17.0657 5.00095 17.5534 5.10511C18.0458 5.20455 18.5051 5.3892 18.9312 5.65909C19.3621 5.92898 19.7149 6.31487 19.9895 6.81676C20.2641 7.31392 20.4014 7.96023 20.4014 8.75568V16H18.3276V14.5085H18.2423C18.105 14.7831 17.8991 15.053 17.6244 15.3182C17.3498 15.5833 16.9971 15.8035 16.5662 15.9787C16.1353 16.1539 15.6192 16.2415 15.0179 16.2415ZM15.4795 14.5369C16.0667 14.5369 16.5686 14.4209 16.9852 14.1889C17.4066 13.9569 17.7262 13.6539 17.944 13.2798C18.1666 12.901 18.2778 12.4962 18.2778 12.0653V10.6591C18.2021 10.7348 18.0553 10.8059 17.8375 10.8722C17.6244 10.9337 17.3806 10.9882 17.106 11.0355C16.8313 11.0781 16.5638 11.1184 16.3034 11.1562C16.043 11.1894 15.8252 11.2178 15.65 11.2415C15.2381 11.2936 14.8616 11.3812 14.5207 11.5043C14.1846 11.6274 13.9147 11.8049 13.7111 12.0369C13.5122 12.2642 13.4128 12.5672 13.4128 12.946C13.4128 13.4716 13.6069 13.8693 13.9952 14.1392C14.3834 14.4044 14.8782 14.5369 15.4795 14.5369ZM27.2251 16.2202C26.1692 16.2202 25.2601 15.9811 24.4978 15.5028C23.7402 15.0199 23.1578 14.3546 22.7506 13.5071C22.3434 12.6596 22.1398 11.6889 22.1398 10.5952C22.1398 9.48722 22.3482 8.50947 22.7648 7.66193C23.1815 6.80966 23.7686 6.14441 24.5262 5.66619C25.2838 5.18797 26.1763 4.94886 27.2038 4.94886C28.0324 4.94886 28.771 5.10275 29.4197 5.41051C30.0683 5.71354 30.5915 6.13968 30.9893 6.68892C31.3917 7.23816 31.6308 7.87973 31.7066 8.61364H29.6398C29.5262 8.10227 29.2658 7.66193 28.8586 7.29261C28.4561 6.9233 27.9164 6.73864 27.2393 6.73864C26.6474 6.73864 26.129 6.89489 25.6839 7.20739C25.2435 7.51515 24.9003 7.95549 24.654 8.52841C24.4078 9.09659 24.2847 9.76894 24.2847 10.5455C24.2847 11.3409 24.4055 12.0275 24.6469 12.6051C24.8884 13.1828 25.2293 13.6302 25.6697 13.9474C26.1147 14.2647 26.6379 14.4233 27.2393 14.4233C27.6417 14.4233 28.0063 14.3499 28.333 14.2031C28.6645 14.0516 28.9415 13.8362 29.164 13.5568C29.3913 13.2775 29.5499 12.9413 29.6398 12.5483H31.7066C31.6308 13.2538 31.4012 13.8835 31.0177 14.4375C30.6342 14.9915 30.1204 15.4271 29.4765 15.7443C28.8373 16.0616 28.0868 16.2202 27.2251 16.2202ZM35.5011 9.52273V16H33.3776V1.45455H35.4727V6.86648H35.6077C35.8634 6.27936 36.254 5.81297 36.7795 5.46733C37.3051 5.12169 37.9917 4.94886 38.8392 4.94886C39.5873 4.94886 40.2407 5.10275 40.7994 5.41051C41.3629 5.71828 41.7985 6.17756 42.1063 6.78835C42.4188 7.39441 42.575 8.15199 42.575 9.06108V16H40.4514V9.31676C40.4514 8.51657 40.2455 7.89631 39.8335 7.45597C39.4216 7.01089 38.8487 6.78835 38.1148 6.78835C37.6129 6.78835 37.1631 6.89489 36.7653 7.10795C36.3723 7.32102 36.0622 7.63352 35.8349 8.04545C35.6124 8.45265 35.5011 8.94508 35.5011 9.52273ZM49.9011 5.09091V6.79545H43.9423V5.09091H49.9011ZM45.5403 2.47727H47.6639V12.7969C47.6639 13.2088 47.7255 13.5189 47.8486 13.7273C47.9717 13.9309 48.1303 14.0705 48.3244 14.1463C48.5233 14.2173 48.7387 14.2528 48.9707 14.2528C49.1412 14.2528 49.2903 14.241 49.4182 14.2173C49.546 14.1937 49.6455 14.1747 49.7165 14.1605L50.1 15.9148C49.9769 15.9621 49.8017 16.0095 49.5744 16.0568C49.3472 16.1089 49.0631 16.1373 48.7222 16.142C48.1634 16.1515 47.6426 16.0521 47.1597 15.8438C46.6767 15.6354 46.2861 15.3134 45.9878 14.8778C45.6895 14.4422 45.5403 13.8954 45.5403 13.2372V2.47727ZM51.6502 5.09091H53.7738V16.7102C53.7738 17.4394 53.6412 18.0549 53.3761 18.5568C53.1156 19.0587 52.7274 19.4399 52.2113 19.7003C51.6999 19.9607 51.0678 20.0909 50.315 20.0909C50.2392 20.0909 50.1682 20.0909 50.1019 20.0909C50.0309 20.0909 49.9575 20.0885 49.8817 20.0838V18.2585C49.948 18.2585 50.0072 18.2585 50.0593 18.2585C50.1067 18.2585 50.1611 18.2585 50.2227 18.2585C50.7246 18.2585 51.0868 18.1236 51.3093 17.8537C51.5366 17.5885 51.6502 17.2027 51.6502 16.696V5.09091ZM52.7013 3.40767C52.332 3.40767 52.0148 3.28456 51.7496 3.03835C51.4892 2.7874 51.359 2.48911 51.359 2.14347C51.359 1.79309 51.4892 1.49479 51.7496 1.24858C52.0148 0.997632 52.332 0.872159 52.7013 0.872159C53.0707 0.872159 53.3855 0.997632 53.646 1.24858C53.9111 1.49479 54.0437 1.79309 54.0437 2.14347C54.0437 2.48911 53.9111 2.7874 53.646 3.03835C53.3855 3.28456 53.0707 3.40767 52.7013 3.40767ZM60.7324 16.2202C59.6576 16.2202 58.7319 15.9905 57.9554 15.5312C57.1836 15.0672 56.587 14.4162 56.1656 13.5781C55.749 12.7353 55.5406 11.7481 55.5406 10.6165C55.5406 9.49905 55.749 8.5142 56.1656 7.66193C56.587 6.80966 57.1741 6.14441 57.927 5.66619C58.6846 5.18797 59.57 4.94886 60.5832 4.94886C61.1988 4.94886 61.7954 5.05066 62.373 5.25426C62.9507 5.45786 63.4691 5.77746 63.9284 6.21307C64.3877 6.64867 64.7499 7.21449 65.0151 7.91051C65.2802 8.6018 65.4128 9.44223 65.4128 10.4318V11.1847H56.7409V9.59375H63.3318C63.3318 9.03504 63.2182 8.54025 62.9909 8.10938C62.7636 7.67377 62.444 7.33049 62.0321 7.07955C61.6249 6.8286 61.1467 6.70312 60.5974 6.70312C60.0009 6.70312 59.48 6.84991 59.0349 7.14347C58.5946 7.43229 58.2537 7.81108 58.0122 8.27983C57.7755 8.74384 57.6571 9.24811 57.6571 9.79261V11.0355C57.6571 11.7647 57.7849 12.3849 58.0406 12.8963C58.301 13.4077 58.6633 13.7983 59.1273 14.0682C59.5913 14.3333 60.1334 14.4659 60.7537 14.4659C61.1562 14.4659 61.5231 14.4091 61.8545 14.2955C62.186 14.1771 62.4724 14.0019 62.7139 13.7699C62.9554 13.5379 63.1401 13.2514 63.2679 12.9105L65.2778 13.2727C65.1169 13.8646 64.828 14.383 64.4114 14.8281C63.9994 15.2685 63.481 15.6117 62.856 15.858C62.2357 16.0994 61.5278 16.2202 60.7324 16.2202ZM72.2613 5.09091V6.79545H66.3025V5.09091H72.2613ZM67.9005 2.47727H70.0241V12.7969C70.0241 13.2088 70.0856 13.5189 70.2087 13.7273C70.3318 13.9309 70.4905 14.0705 70.6846 14.1463C70.8835 14.2173 71.0989 14.2528 71.3309 14.2528C71.5014 14.2528 71.6505 14.241 71.7783 14.2173C71.9062 14.1937 72.0056 14.1747 72.0766 14.1605L72.4602 15.9148C72.3371 15.9621 72.1619 16.0095 71.9346 16.0568C71.7073 16.1089 71.4232 16.1373 71.0823 16.142C70.5236 16.1515 70.0028 16.0521 69.5198 15.8438C69.0369 15.6354 68.6462 15.3134 68.3479 14.8778C68.0496 14.4422 67.9005 13.8954 67.9005 13.2372V2.47727Z" fill="#1B414B"/>
</svg>
