<svg width="74" height="24" viewBox="0 0 74 24" fill="none" xmlns="http://www.w3.org/2000/svg">
<path d="M2.76989 23.0909C2.45265 23.0909 2.16383 23.0649 1.90341 23.0128C1.64299 22.9654 1.44886 22.9134 1.32102 22.8565L1.83239 21.1165C2.22064 21.2206 2.56629 21.2656 2.86932 21.2514C3.17235 21.2372 3.43987 21.1236 3.67188 20.9105C3.90862 20.6974 4.11695 20.3494 4.29688 19.8665L4.55966 19.142L0.568182 8.09091H2.84091L5.60369 16.5568H5.71733L8.48011 8.09091H10.7599L6.2642 20.456C6.05587 21.0241 5.79072 21.5047 5.46875 21.8977C5.14678 22.2955 4.76326 22.5938 4.31818 22.7926C3.87311 22.9915 3.35701 23.0909 2.76989 23.0909ZM15.0179 19.2415C14.3266 19.2415 13.7016 19.1136 13.1429 18.858C12.5842 18.5975 12.1415 18.2211 11.8148 17.7287C11.4928 17.2363 11.3318 16.6326 11.3318 15.9176C11.3318 15.3021 11.4502 14.7955 11.6869 14.3977C11.9237 14 12.2433 13.6851 12.6457 13.4531C13.0482 13.2211 13.498 13.0459 13.9952 12.9276C14.4923 12.8092 14.999 12.7192 15.5151 12.6577C16.1685 12.5819 16.6988 12.5204 17.106 12.473C17.5132 12.4209 17.8091 12.3381 17.9937 12.2244C18.1784 12.1108 18.2707 11.9261 18.2707 11.6705V11.6207C18.2707 11.0005 18.0955 10.5199 17.7452 10.179C17.3995 9.83807 16.8834 9.66761 16.1969 9.66761C15.4819 9.66761 14.9185 9.82623 14.5065 10.1435C14.0993 10.456 13.8176 10.804 13.6614 11.1875L11.6656 10.733C11.9024 10.0701 12.248 9.53504 12.7026 9.12784C13.1618 8.71591 13.6898 8.41761 14.2864 8.23295C14.883 8.04356 15.5103 7.94886 16.1685 7.94886C16.6041 7.94886 17.0657 8.00095 17.5534 8.10511C18.0458 8.20455 18.5051 8.3892 18.9312 8.65909C19.3621 8.92898 19.7149 9.31487 19.9895 9.81676C20.2641 10.3139 20.4014 10.9602 20.4014 11.7557V19H18.3276V17.5085H18.2423C18.105 17.7831 17.8991 18.053 17.6244 18.3182C17.3498 18.5833 16.9971 18.8035 16.5662 18.9787C16.1353 19.1539 15.6192 19.2415 15.0179 19.2415ZM15.4795 17.5369C16.0667 17.5369 16.5686 17.4209 16.9852 17.1889C17.4066 16.9569 17.7262 16.6539 17.944 16.2798C18.1666 15.901 18.2778 15.4962 18.2778 15.0653V13.6591C18.2021 13.7348 18.0553 13.8059 17.8375 13.8722C17.6244 13.9337 17.3806 13.9882 17.106 14.0355C16.8313 14.0781 16.5638 14.1184 16.3034 14.1562C16.043 14.1894 15.8252 14.2178 15.65 14.2415C15.2381 14.2936 14.8616 14.3812 14.5207 14.5043C14.1846 14.6274 13.9147 14.8049 13.7111 15.0369C13.5122 15.2642 13.4128 15.5672 13.4128 15.946C13.4128 16.4716 13.6069 16.8693 13.9952 17.1392C14.3834 17.4044 14.8782 17.5369 15.4795 17.5369ZM27.2251 19.2202C26.1692 19.2202 25.2601 18.9811 24.4978 18.5028C23.7402 18.0199 23.1578 17.3546 22.7506 16.5071C22.3434 15.6596 22.1398 14.6889 22.1398 13.5952C22.1398 12.4872 22.3482 11.5095 22.7648 10.6619C23.1815 9.80966 23.7686 9.14441 24.5262 8.66619C25.2838 8.18797 26.1763 7.94886 27.2038 7.94886C28.0324 7.94886 28.771 8.10275 29.4197 8.41051C30.0683 8.71354 30.5915 9.13968 30.9893 9.68892C31.3917 10.2382 31.6308 10.8797 31.7066 11.6136H29.6398C29.5262 11.1023 29.2658 10.6619 28.8586 10.2926C28.4561 9.9233 27.9164 9.73864 27.2393 9.73864C26.6474 9.73864 26.129 9.89489 25.6839 10.2074C25.2435 10.5152 24.9003 10.9555 24.654 11.5284C24.4078 12.0966 24.2847 12.7689 24.2847 13.5455C24.2847 14.3409 24.4055 15.0275 24.6469 15.6051C24.8884 16.1828 25.2293 16.6302 25.6697 16.9474C26.1147 17.2647 26.6379 17.4233 27.2393 17.4233C27.6417 17.4233 28.0063 17.3499 28.333 17.2031C28.6645 17.0516 28.9415 16.8362 29.164 16.5568C29.3913 16.2775 29.5499 15.9413 29.6398 15.5483H31.7066C31.6308 16.2538 31.4012 16.8835 31.0177 17.4375C30.6342 17.9915 30.1204 18.4271 29.4765 18.7443C28.8373 19.0616 28.0868 19.2202 27.2251 19.2202ZM35.5011 12.5227V19H33.3776V4.45455H35.4727V9.86648H35.6077C35.8634 9.27936 36.254 8.81297 36.7795 8.46733C37.3051 8.12169 37.9917 7.94886 38.8392 7.94886C39.5873 7.94886 40.2407 8.10275 40.7994 8.41051C41.3629 8.71828 41.7985 9.17756 42.1063 9.78835C42.4188 10.3944 42.575 11.152 42.575 12.0611V19H40.4514V12.3168C40.4514 11.5166 40.2455 10.8963 39.8335 10.456C39.4216 10.0109 38.8487 9.78835 38.1148 9.78835C37.6129 9.78835 37.1631 9.89489 36.7653 10.108C36.3723 10.321 36.0622 10.6335 35.8349 11.0455C35.6124 11.4527 35.5011 11.9451 35.5011 12.5227ZM49.9011 8.09091V9.79545H43.9423V8.09091H49.9011ZM45.5403 5.47727H47.6639V15.7969C47.6639 16.2088 47.7255 16.5189 47.8486 16.7273C47.9717 16.9309 48.1303 17.0705 48.3244 17.1463C48.5233 17.2173 48.7387 17.2528 48.9707 17.2528C49.1412 17.2528 49.2903 17.241 49.4182 17.2173C49.546 17.1937 49.6455 17.1747 49.7165 17.1605L50.1 18.9148C49.9769 18.9621 49.8017 19.0095 49.5744 19.0568C49.3472 19.1089 49.0631 19.1373 48.7222 19.142C48.1634 19.1515 47.6426 19.0521 47.1597 18.8438C46.6767 18.6354 46.2861 18.3134 45.9878 17.8778C45.6895 17.4422 45.5403 16.8954 45.5403 16.2372V5.47727ZM51.6502 8.09091H53.7738V19.7102C53.7738 20.4394 53.6412 21.0549 53.3761 21.5568C53.1156 22.0587 52.7274 22.4399 52.2113 22.7003C51.6999 22.9607 51.0678 23.0909 50.315 23.0909C50.2392 23.0909 50.1682 23.0909 50.1019 23.0909C50.0309 23.0909 49.9575 23.0885 49.8817 23.0838V21.2585C49.948 21.2585 50.0072 21.2585 50.0593 21.2585C50.1067 21.2585 50.1611 21.2585 50.2227 21.2585C50.7246 21.2585 51.0868 21.1236 51.3093 20.8537C51.5366 20.5885 51.6502 20.2027 51.6502 19.696V8.09091ZM52.7013 6.40767C52.332 6.40767 52.0148 6.28456 51.7496 6.03835C51.4892 5.7874 51.359 5.48911 51.359 5.14347C51.359 4.79309 51.4892 4.49479 51.7496 4.24858C52.0148 3.99763 52.332 3.87216 52.7013 3.87216C53.0707 3.87216 53.3855 3.99763 53.646 4.24858C53.9111 4.49479 54.0437 4.79309 54.0437 5.14347C54.0437 5.48911 53.9111 5.7874 53.646 6.03835C53.3855 6.28456 53.0707 6.40767 52.7013 6.40767ZM60.7324 19.2202C59.6576 19.2202 58.7319 18.9905 57.9554 18.5312C57.1836 18.0672 56.587 17.4162 56.1656 16.5781C55.749 15.7353 55.5406 14.7481 55.5406 13.6165C55.5406 12.4991 55.749 11.5142 56.1656 10.6619C56.587 9.80966 57.1741 9.14441 57.927 8.66619C58.6846 8.18797 59.57 7.94886 60.5832 7.94886C61.1988 7.94886 61.7954 8.05066 62.373 8.25426C62.9507 8.45786 63.4691 8.77746 63.9284 9.21307C64.3877 9.64867 64.7499 10.2145 65.0151 10.9105C65.2802 11.6018 65.4128 12.4422 65.4128 13.4318V14.1847H56.7409V12.5938H63.3318C63.3318 12.035 63.2182 11.5402 62.9909 11.1094C62.7636 10.6738 62.444 10.3305 62.0321 10.0795C61.6249 9.8286 61.1467 9.70312 60.5974 9.70312C60.0009 9.70312 59.48 9.84991 59.0349 10.1435C58.5946 10.4323 58.2537 10.8111 58.0122 11.2798C57.7755 11.7438 57.6571 12.2481 57.6571 12.7926V14.0355C57.6571 14.7647 57.7849 15.3849 58.0406 15.8963C58.301 16.4077 58.6633 16.7983 59.1273 17.0682C59.5913 17.3333 60.1334 17.4659 60.7537 17.4659C61.1562 17.4659 61.5231 17.4091 61.8545 17.2955C62.186 17.1771 62.4724 17.0019 62.7139 16.7699C62.9554 16.5379 63.1401 16.2514 63.2679 15.9105L65.2778 16.2727C65.1169 16.8646 64.828 17.383 64.4114 17.8281C63.9994 18.2685 63.481 18.6117 62.856 18.858C62.2357 19.0994 61.5278 19.2202 60.7324 19.2202ZM72.2613 8.09091V9.79545H66.3025V8.09091H72.2613ZM67.9005 5.47727H70.0241V15.7969C70.0241 16.2088 70.0856 16.5189 70.2087 16.7273C70.3318 16.9309 70.4905 17.0705 70.6846 17.1463C70.8835 17.2173 71.0989 17.2528 71.3309 17.2528C71.5014 17.2528 71.6505 17.241 71.7783 17.2173C71.9062 17.1937 72.0056 17.1747 72.0766 17.1605L72.4602 18.9148C72.3371 18.9621 72.1619 19.0095 71.9346 19.0568C71.7073 19.1089 71.4232 19.1373 71.0823 19.142C70.5236 19.1515 70.0028 19.0521 69.5198 18.8438C69.0369 18.6354 68.6462 18.3134 68.3479 17.8778C68.0496 17.4422 67.9005 16.8954 67.9005 16.2372V5.47727Z" fill="#1B414B"/>
</svg>
